<svg xmlns="http://www.w3.org/2000/svg" width="866" height="541" viewBox="-0.5 -0.5 866 541" style="background-color:#fff"><defs><clipPath id="a"><path d="M50 260h30v30H50z"/></clipPath><clipPath id="b"><path d="M86 260h144v30H86z"/></clipPath><clipPath id="c"><path d="M86 290h144v30H86z"/></clipPath><clipPath id="d"><path d="M86 320h144v30H86z"/></clipPath><clipPath id="e"><path d="M86 350h144v30H86z"/></clipPath><clipPath id="f"><path d="M635 260h30v30h-30z"/></clipPath><clipPath id="g"><path d="M671 260h144v30H671z"/></clipPath><clipPath id="h"><path d="M671 290h144v30H671z"/></clipPath><clipPath id="i"><path d="M365 80h30v30h-30z"/></clipPath><clipPath id="j"><path d="M401 80h144v30H401z"/></clipPath><clipPath id="k"><path d="M401 110h144v30H401z"/></clipPath><clipPath id="l"><path d="M365 360h30v30h-30z"/></clipPath><clipPath id="m"><path d="M401 360h144v30H401z"/></clipPath><clipPath id="n"><path d="M401 390h144v30H401z"/></clipPath></defs><path d="M230 260v-16.5q0-13.5-13.5-13.5h-153Q50 230 50 243.5V260" fill="none" pointer-events="all"/><path d="m228.39 260.64-.86-22.28-4.37-6.96-5.82-.24-157.6-2.63-3.12 2.39-6.71 6.64.06 24.13" fill="#FFF" pointer-events="none"/><path d="M230 260c1.43-4.35.98-8.48 0-16.5m0 16.5c-.44-4.39-.55-10.09 0-16.5m0 0c-1.78-10.43-4.2-13.1-13.5-13.5m13.5 13.5c1.97-10.51-6.15-15.17-13.5-13.5m0 0c-44.46-2.21-87.9-2.34-153 0m153 0c-48.19.62-97.07.36-153 0m0 0c-9.5-.85-15.01 4.8-13.5 13.5M63.5 230c-8.4 1.22-11.55 5.47-13.5 13.5m0 0c.04 4.24-1.02 8.04 0 16.5m0-16.5c.04 4.62.28 8.53 0 16.5M50 260c1.14 23.98-.12 51.93 0 116.5M50 260c.33 41.22-.81 83.41 0 116.5m0 0c-.03 10.69 2.78 15.24 13.5 13.5M50 376.5c.99 11.2 3.36 15.07 13.5 13.5m0 0c31.73-.12 66.68-.38 153 0m-153 0c38.19 1.29 76.94.43 153 0m0 0c7.56-1.45 13.2-5.29 13.5-13.5M216.5 390c7.33-.97 12.24-5.27 13.5-13.5m0 0c1.45-26.94-1.5-55.25 0-116.5m0 116.5c-.47-24.18.55-48.12 0-116.5M50 260c40.24-.1 78.45 2.3 180 0m-180 0c65.12 1.02 128.43 1.5 180 0" fill="none" stroke="#000" stroke-linejoin="round" stroke-linecap="round" stroke-miterlimit="10" pointer-events="none"/><path d="M80 260c.86 5.01-.4 13.99 0 30m0-30c.58 10.25-.56 21.47 0 30m0 0c2 9.81 2.17 16.91 0 30m0-30c-1.1 10.51-.96 22.64 0 30m0 0c-1.58 6.79.25 14.7 0 30m0-30c-.36 6.63-.94 13.63 0 30m0 0c.26 7.51 1.56 15.57 0 30m0-30c-.2 6.63-.71 14.26 0 30" fill="none" stroke="#000" stroke-linejoin="round" stroke-linecap="round" stroke-miterlimit="10" pointer-events="none"/><text x="139.5" y="249.5" font-family="Comic Sans MS" font-weight="bold" pointer-events="none" text-anchor="middle" font-size="12">Users</text><path d="M230 290c-39.85 2.1-77.76.7-180 0m180 0c-41.54-.71-82.51-1.02-180 0M50 290" fill="none" stroke="#000" stroke-linejoin="round" stroke-linecap="square" stroke-miterlimit="10" pointer-events="none"/><g font-family="Comic Sans MS" font-weight="bold" pointer-events="none" clip-path="url(#a)" text-anchor="middle" font-size="12"><text x="64.5" y="279.5">PK</text></g><path d="M80 290" fill="none" stroke="#000" stroke-linejoin="round" stroke-linecap="square" stroke-miterlimit="10" pointer-events="none"/><g font-family="Comic Sans MS" font-weight="bold" text-decoration="underline" pointer-events="none" clip-path="url(#b)" font-size="12"><text x="87.5" y="279.5">id</text></g><path d="M80 320" fill="none" stroke="#000" stroke-linejoin="round" stroke-linecap="square" stroke-miterlimit="10" pointer-events="none"/><g font-family="Comic Sans MS" pointer-events="none" clip-path="url(#c)" font-size="12"><text x="87.5" y="309.5">name</text></g><path d="M80 350" fill="none" stroke="#000" stroke-linejoin="round" stroke-linecap="square" stroke-miterlimit="10" pointer-events="none"/><g font-family="Comic Sans MS" pointer-events="none" clip-path="url(#d)" font-size="12"><text x="87.5" y="339.5">age</text></g><path d="M80 380" fill="none" stroke="#000" stroke-linejoin="round" stroke-linecap="square" stroke-miterlimit="10" pointer-events="none"/><g font-family="Comic Sans MS" pointer-events="none" clip-path="url(#e)" font-size="12"><text x="87.5" y="369.5">gender</text></g><path d="m813.39 260.2.92-20.69-5.38-6.98-7.04-4.41-155.97 1.43-6.96 3.89-3.57 5.47-.53 20.77" fill="#FFF" pointer-events="none"/><path d="M815 260c-1.32-5.46.37-11.66 0-16.5m0 16.5c-.52-5.97-.09-10.73 0-16.5m0 0c-1.56-7.15-5.76-14.59-13.5-13.5m13.5 13.5c-1.01-10.72-5.87-13.27-13.5-13.5m0 0c-46.11-.96-94.95 1.89-153 0m153 0c-30.66 1.98-62.03 1.58-153 0m0 0c-10.54 1.59-12.73 4.42-13.5 13.5m13.5-13.5c-8.54.97-11.73 3.43-13.5 13.5m0 0c-.56 5.79 1.16 10.58 0 16.5m0-16.5c-.63 5.26.27 10.75 0 16.5M635 260c2.03 24.77.75 51.51 0 116.5m0-116.5c-.32 24.75.11 48.62 0 116.5m0 0c-.14 8.68 4.66 14.58 13.5 13.5M635 376.5c-1.45 7.28 3.98 14.14 13.5 13.5m0 0c31.23-2.28 62.54-1.24 153 0m-153 0c44.11-1.96 89.03-2.16 153 0m0 0c7.81.2 13.66-3.78 13.5-13.5M801.5 390c9.7 1.16 11.86-5.32 13.5-13.5m0 0c2.55-41.68 2.84-84.77 0-116.5m0 116.5c1.28-40.43 1.1-80.36 0-116.5M635 260c41.41-.93 79.63.25 180 0m-180 0c36.4 1.37 73.88 1.26 180 0" fill="none" stroke="#000" stroke-linejoin="round" stroke-linecap="round" stroke-miterlimit="10" pointer-events="none"/><path d="M665 260c1.95 5.79.67 13.55 0 30m0-30c-.57 6.94-.14 13.01 0 30m0 0c1.03 7.52-1.54 17.12 0 30m0-30c.64 9.43-.72 18.89 0 30m0 0c1.83 7.98-1.11 17.59 0 30m0-30c-.1 7.11.12 14.01 0 30m0 0c-1.99 6.28 1.34 15.32 0 30m0-30c-.5 12.4.65 23.18 0 30" fill="none" stroke="#000" stroke-linejoin="round" stroke-linecap="round" stroke-miterlimit="10" pointer-events="none"/><text x="724.5" y="249.5" font-family="Comic Sans MS" font-weight="bold" pointer-events="none" text-anchor="middle" font-size="12">Students</text><path d="M815 290c-38.73-3.13-80.68-1.75-180 0m180 0c-49.47 1.47-99.48.58-180 0M635 290" fill="none" stroke="#000" stroke-linejoin="round" stroke-linecap="square" stroke-miterlimit="10" pointer-events="none"/><g font-family="Comic Sans MS" font-weight="bold" pointer-events="none" clip-path="url(#f)" text-anchor="middle" font-size="12"><text x="649.5" y="279.5">PK</text></g><path d="M665 290" fill="none" stroke="#000" stroke-linejoin="round" stroke-linecap="square" stroke-miterlimit="10" pointer-events="none"/><g font-family="Comic Sans MS" font-weight="bold" text-decoration="underline" pointer-events="none" clip-path="url(#g)" font-size="12"><text x="672.5" y="279.5">id</text></g><path d="M665 320" fill="none" stroke="#000" stroke-linejoin="round" stroke-linecap="square" stroke-miterlimit="10" pointer-events="none"/><g font-family="Comic Sans MS" pointer-events="none" clip-path="url(#h)" font-size="12"><text x="672.5" y="309.5">identityNumber</text></g><path d="M665 380" fill="none" stroke="#000" stroke-linejoin="round" stroke-linecap="square" stroke-miterlimit="10" pointer-events="none"/><path d="M635 275c-7.53-1.71-12.13-1.57-30 0m30 0c-11.83.77-21.72-.34-30 0m0 0c-77.32-2.86-155.84-.58-345 0m345 0c-126.76.19-253.83-.08-345 0m0 0c-11.4.66-25.32-.52-30 0m30 0c-7.86-.2-15.6-1.25-30 0" fill="none" stroke="#000" stroke-linejoin="round" stroke-linecap="round" stroke-miterlimit="10" pointer-events="none"/><path d="M230 271c-.42 1.05.38 2.86 0 8m0-8c-.37 3.13.06 5.61 0 8" fill="none" stroke="#000" stroke-linejoin="round" stroke-linecap="round" stroke-miterlimit="10" pointer-events="none"/><path d="m543.39 79.25-.38-19.73-2.1-8.89-7.89-1.88-157.99.35-4.1 4.25-3.11 5.92-3.61 22.04" fill="#FFF" pointer-events="none"/><path d="M545 80c1.5-7.29.7-10.7 0-16.5m0 16.5c.52-5.57.49-11.09 0-16.5m0 0c-1.45-9.28-6.44-13.99-13.5-13.5M545 63.5c-1.86-8.63-4.33-15.02-13.5-13.5m0 0c-40.22-1.12-81.85-2.28-153 0m153 0c-40.17.03-82.5-.36-153 0m0 0c-7.79.43-15.33 5.44-13.5 13.5M378.5 50c-6.88 1.92-13.64 3.32-13.5 13.5m0 0c-1.14 5.23-1.45 8.55 0 16.5m0-16.5c-.45 4.1-.3 6.92 0 16.5M365 80c1.49 26.78-1.71 52.71 0 116.5M365 80c.15 28.39.81 56.17 0 116.5m0 0c-.79 10.31 5.88 13.71 13.5 13.5M365 196.5c.47 11.11 2.83 14.5 13.5 13.5m0 0c60.84 1.63 119.2 1.53 153 0m-153 0c45.79-.03 92.71.37 153 0m0 0c9.15-1.32 12.77-4.11 13.5-13.5M531.5 210c7.1.08 13.67-5.95 13.5-13.5m0 0c.78-27.38-.18-59.08 0-116.5m0 116.5c-1.62-26.63.22-53.37 0-116.5M365 80c41.47 2.22 77.82 2.56 180 0m-180 0c43.08 1.72 86.49 1.83 180 0" fill="none" stroke="#000" stroke-linejoin="round" stroke-linecap="round" stroke-miterlimit="10" pointer-events="none"/><path d="M395 80c1.81 7.78-1.38 14.7 0 30m0-30c.28 7.85.94 15.09 0 30m0 0c.41 8.22 2.03 14.17 0 30m0-30c-.05 10.93.84 20.61 0 30m0 0c-.26 8.64-.47 19.53 0 30m0-30c-.34 9.68-.8 19 0 30m0 0c-.83 7.43.22 20.07 0 30m0-30c.45 8.38-1.07 16.8 0 30" fill="none" stroke="#000" stroke-linejoin="round" stroke-linecap="round" stroke-miterlimit="10" pointer-events="none"/><text x="454.5" y="69.5" font-family="Comic Sans MS" font-weight="bold" pointer-events="none" text-anchor="middle" font-size="12">Parents</text><path d="M545 110c-38.76 1.28-78.68 1.82-180 0m180 0c-56.18 1.03-111.66.36-180 0M365 110" fill="none" stroke="#000" stroke-linejoin="round" stroke-linecap="square" stroke-miterlimit="10" pointer-events="none"/><g font-family="Comic Sans MS" font-weight="bold" pointer-events="none" clip-path="url(#i)" text-anchor="middle" font-size="12"><text x="379.5" y="99.5">PK</text></g><path d="M395 110" fill="none" stroke="#000" stroke-linejoin="round" stroke-linecap="square" stroke-miterlimit="10" pointer-events="none"/><g font-family="Comic Sans MS" font-weight="bold" text-decoration="underline" pointer-events="none" clip-path="url(#j)" font-size="12"><text x="402.5" y="99.5">id</text></g><path d="M395 140" fill="none" stroke="#000" stroke-linejoin="round" stroke-linecap="square" stroke-miterlimit="10" pointer-events="none"/><g font-family="Comic Sans MS" pointer-events="none" clip-path="url(#k)" font-size="12"><text x="402.5" y="129.5">occupation</text></g><path d="M395 200" fill="none" stroke="#000" stroke-linecap="square" stroke-miterlimit="10" pointer-events="none"/><path d="M365 95c-7.53 2.05-13.33 1.17-30 0m30 0c-7.56-.03-17.89-.5-30 0m0 0c-20.2 43.9-40.43 90.57-75 180m75-180c-21.77 55.82-43.12 110.32-75 180m0 0c-8.32.32-16.62-.4-30 0m30 0c-9.35 1-18.21 1.01-30 0" fill="none" stroke="#000" stroke-linejoin="round" stroke-linecap="round" stroke-miterlimit="10" pointer-events="none"/><path d="M230 271c-.42 2.54-.1 3.95 0 8m0-8c.43 2.28-.28 4.37 0 8" fill="none" stroke="#000" stroke-linejoin="round" stroke-linecap="round" stroke-miterlimit="10" pointer-events="none"/><path d="m543.4 359.16-.21-19.64-2.54-6.08-8.92-2.29-155.26.18-5.81.97-4.82 7.19-1.04 22.34" fill="#FFF" pointer-events="none"/><path d="M545 360c.83-3.49-.29-8.45 0-16.5m0 16.5c.68-3.47-.89-6.99 0-16.5m0 0c-.88-10.61-2.87-14.11-13.5-13.5m13.5 13.5c-1.82-7.9-5.67-12.66-13.5-13.5m0 0c-32.22-.66-63.01 2.67-153 0m153 0c-43.04.18-87.15.29-153 0m0 0c-7.57-1.29-15.45 4.58-13.5 13.5m13.5-13.5c-9.86-.37-13.69 3.25-13.5 13.5m0 0c.11 4.88-.64 8.93 0 16.5m0-16.5c-.59 3.98-.29 8.85 0 16.5M365 360c1.43 26.53 1.05 51.46 0 116.5m0-116.5c.86 41.82.66 84.19 0 116.5m0 0c-.2 10.83 2.64 12.67 13.5 13.5M365 476.5c.53 10.06 4.41 13 13.5 13.5m0 0c31.95.89 62.31-2.91 153 0m-153 0c52.67.93 102.91 1.71 153 0m0 0c7.98.73 11.71-6.32 13.5-13.5M531.5 490c10.08-.02 11.92-2.9 13.5-13.5m0 0c-.53-46.15 1.72-94.44 0-116.5m0 116.5c-1.81-44.97-1.21-90.18 0-116.5M365 360c41.5 1.79 80.68 1.1 180 0m-180 0c64.51-.81 128.62-.06 180 0" fill="none" stroke="#000" stroke-linejoin="round" stroke-linecap="round" stroke-miterlimit="10" pointer-events="none"/><path d="M395 360c1.8 7.52 1.41 13.43 0 30m0-30c.36 10.92.17 22.38 0 30m0 0c-.56 9.16 1.2 17.32 0 30m0-30c.38 8.86.66 16.93 0 30m0 0c-1.49 7.8-.49 10.75 0 30m0-30c-1.05 9.53.32 20.86 0 30m0 0c-.15 8.4-.53 14.05 0 30m0-30c.45 10.62-1.25 22.56 0 30" fill="none" stroke="#000" stroke-linejoin="round" stroke-linecap="round" stroke-miterlimit="10" pointer-events="none"/><text x="454.5" y="349.5" font-family="Comic Sans MS" font-weight="bold" pointer-events="none" text-anchor="middle" font-size="12">Teachers</text><path d="M545 390c-38.79 1.18-79.93.69-180 0m180 0c-41.88-1.1-81.77-1.13-180 0M365 390" fill="none" stroke="#000" stroke-linejoin="round" stroke-linecap="square" stroke-miterlimit="10" pointer-events="none"/><g font-family="Comic Sans MS" font-weight="bold" pointer-events="none" clip-path="url(#l)" text-anchor="middle" font-size="12"><text x="379.5" y="379.5">PK</text></g><path d="M395 390" fill="none" stroke="#000" stroke-linejoin="round" stroke-linecap="square" stroke-miterlimit="10" pointer-events="none"/><g font-family="Comic Sans MS" font-weight="bold" text-decoration="underline" pointer-events="none" clip-path="url(#m)" font-size="12"><text x="402.5" y="379.5">id</text></g><path d="M395 420" fill="none" stroke="#000" stroke-linejoin="round" stroke-linecap="square" stroke-miterlimit="10" pointer-events="none"/><g font-family="Comic Sans MS" pointer-events="none" clip-path="url(#n)" font-size="12"><text x="402.5" y="409.5">married</text></g><path d="M395 480" fill="none" stroke="#000" stroke-linejoin="round" stroke-linecap="square" stroke-miterlimit="10" pointer-events="none"/><path d="M365 375c-7.53 1.82-14.53-.1-30 0m30 0c-5.29-.82-12.07-.66-30 0m0 0c-22.76-30.11-41.09-56.45-75-100m75 100c-18.4-23.53-37.46-47.06-75-100m0 0c-7.24-.03-15.92-.28-30 0m30 0c-10.83-.4-20.83.68-30 0" fill="none" stroke="#000" stroke-linejoin="round" stroke-linecap="round" stroke-miterlimit="10" pointer-events="none"/><path d="M230 271c-.42 2.44-.59 3.43 0 8m0-8c.28 1.42.03 3.13 0 8" fill="none" stroke="#000" stroke-linejoin="round" stroke-linecap="round" stroke-miterlimit="10" pointer-events="none"/></svg>